<?xml version="1.0" standalone="no"?><!DOCTYPE svg PUBLIC "-//W3C//DTD SVG 1.1//EN" "http://www.w3.org/Graphics/SVG/1.1/DTD/svg11.dtd"><svg t="1599462415207" class="icon" viewBox="0 0 1024 1024" version="1.1" xmlns="http://www.w3.org/2000/svg" p-id="1175" xmlns:xlink="http://www.w3.org/1999/xlink" width="16" height="16"><defs><style type="text/css"></style></defs><path d="M477.44 96c-11.093333 0-22.186667 2.56-32.853333 6.4L130.56 232.533333a85.077333 85.077333 0 0 0-46.506667 110.933334L295.68 853.333333a85.333333 85.333333 0 0 0 77.226667 53.333334c11.093333 0 22.613333-1.28 33.706666-6.4l314.453334-130.133334a86.186667 86.186667 0 0 0 52.48-76.8c0.426667-10.666667-1.706667-23.04-5.546667-34.133333L554.666667 149.333333a83.370667 83.370667 0 0 0-77.226667-53.333333m148.48 0l147.2 356.266667V181.333333a85.333333 85.333333 0 0 0-85.333333-85.333333m171.093333 65.706667v385.28l103.68-250.026667a84.906667 84.906667 0 0 0-46.506667-110.933333m-438.613333-5.973334l212.48 512.853334-315.306667 130.56L162.133333 311.04" fill="" p-id="1176"></path></svg>